<svg width="745" height="397" xmlns="http://www.w3.org/2000/svg" xmlns:xlink="http://www.w3.org/1999/xlink" overflow="hidden"><g transform="translate(-5 -214)"><rect x="132" y="290" width="86" height="39" fill="#4472C4"/><text fill="#FFFFFF" font-family="DengXian,DengXian_MSFontService,sans-serif" font-weight="700" font-size="24" transform="translate(144.937 317)">Msg1</text><rect x="276" y="290" width="85" height="39" fill="#4472C4"/><text fill="#FFFFFF" font-family="DengXian,DengXian_MSFontService,sans-serif" font-weight="700" font-size="24" transform="translate(288.169 317)">Msg2</text><rect x="446" y="290" width="85" height="39" fill="#4472C4"/><text fill="#FFFFFF" font-family="DengXian,DengXian_MSFontService,sans-serif" font-weight="700" font-size="24" transform="translate(458.281 317)">Msg3</text><rect x="242" y="556" width="127" height="51" fill="#ED7D31"/><text fill="#FFFFFF" font-family="DengXian,DengXian_MSFontService,sans-serif" font-weight="700" font-size="24" transform="translate(252.835 589)">Msg_Sum</text><rect x="9" y="218" width="127" height="52" fill="#ED7D31"/><text fill="#FFFFFF" font-family="DengXian,DengXian_MSFontService,sans-serif" font-weight="700" font-size="24" transform="translate(19.7517 252)">Msg_Sum</text><text font-family="DengXian,DengXian_MSFontService,sans-serif" font-weight="400" font-size="24" transform="translate(142.08 250)">-</text><rect x="155" y="223" width="85" height="39" fill="#4472C4"/><text fill="#FFFFFF" font-family="DengXian,DengXian_MSFontService,sans-serif" font-weight="700" font-size="24" transform="translate(167.559 250)">Msg1</text><rect x="261" y="215" width="128" height="52" fill="#ED7D31"/><text fill="#FFFFFF" font-family="DengXian,DengXian_MSFontService,sans-serif" font-weight="700" font-size="24" transform="translate(272.528 249)">Msg_Sum</text><text font-family="DengXian,DengXian_MSFontService,sans-serif" font-weight="400" font-size="24" transform="translate(394.856 247)">-</text><rect x="411" y="223" width="85" height="39" fill="#4472C4"/><text fill="#FFFFFF" font-family="DengXian,DengXian_MSFontService,sans-serif" font-weight="700" font-size="24" transform="translate(423.137 250)">Msg2</text><rect x="515" y="214" width="128" height="51" fill="#ED7D31"/><text fill="#FFFFFF" font-family="DengXian,DengXian_MSFontService,sans-serif" font-weight="700" font-size="24" transform="translate(526.326 247)">Msg_Sum</text><text font-family="DengXian,DengXian_MSFontService,sans-serif" font-weight="400" font-size="24" transform="translate(646.479 247)">-</text><rect x="662" y="223" width="85" height="39" fill="#4472C4"/><text fill="#FFFFFF" font-family="DengXian,DengXian_MSFontService,sans-serif" font-weight="700" font-size="24" transform="translate(674.515 250)">Msg3</text><path d="M294.5 528C294.5 517.231 300.096 508.5 307 508.5 313.904 508.5 319.5 517.231 319.5 528 319.5 538.77 313.904 547.5 307 547.5 300.096 547.5 294.5 538.77 294.5 528Z" stroke="#4472C4" stroke-width="1.33333" stroke-miterlimit="8" fill="#4472C4" fill-rule="evenodd"/><path d="M404.5 528C404.5 517.231 409.873 508.5 416.5 508.5 423.127 508.5 428.5 517.231 428.5 528 428.5 538.77 423.127 547.5 416.5 547.5 409.873 547.5 404.5 538.77 404.5 528Z" stroke="#000000" stroke-width="1.33333" stroke-miterlimit="8" fill-rule="evenodd"/><path d="M493.5 528C493.5 517.231 498.873 508.5 505.5 508.5 512.128 508.5 517.5 517.231 517.5 528 517.5 538.77 512.128 547.5 505.5 547.5 498.873 547.5 493.5 538.77 493.5 528Z" stroke="#000000" stroke-width="1.33333" stroke-miterlimit="8" fill-rule="evenodd"/><path d="M590.5 528C590.5 517.231 596.096 508.5 603 508.5 609.904 508.5 615.5 517.231 615.5 528 615.5 538.77 609.904 547.5 603 547.5 596.096 547.5 590.5 538.77 590.5 528Z" stroke="#000000" stroke-width="1.33333" stroke-miterlimit="8" fill-rule="evenodd"/><rect x="218" y="338" width="31" height="33" fill="#4472C4"/><path d="M0 0 18.023 137.163" stroke="#4472C4" stroke-width="3" stroke-miterlimit="8" fill-rule="evenodd" transform="matrix(1 0 0 -1 306.5 508.663)"/><path d="M196.5 528C196.5 517.231 202.096 508.5 209 508.5 215.904 508.5 221.5 517.231 221.5 528 221.5 538.77 215.904 547.5 209 547.5 202.096 547.5 196.5 538.77 196.5 528Z" stroke="#000000" stroke-width="1.33333" stroke-miterlimit="8" fill-rule="evenodd"/><path d="M99.5001 528C99.5001 517.231 105.096 508.5 112 508.5 118.904 508.5 124.5 517.231 124.5 528 124.5 538.77 118.904 547.5 112 547.5 105.096 547.5 99.5001 538.77 99.5001 528Z" stroke="#000000" stroke-width="1.33333" stroke-miterlimit="8" fill-rule="evenodd"/><rect x="309" y="338" width="31" height="33" fill="#4472C4"/><rect x="412" y="338" width="32" height="33" fill="#4472C4"/><path d="M306.46 508.172 233.5 371.5" stroke="#4472C4" stroke-width="3" stroke-miterlimit="8" fill-rule="evenodd"/><path d="M416.284 508.803 233.5 371.5" stroke="#000000" stroke-width="3" stroke-miterlimit="8" fill-rule="evenodd"/><path d="M505.348 508.172 233.5 371.5" stroke="#000000" stroke-width="3" stroke-miterlimit="8" fill-rule="evenodd"/><path d="M602.884 508.172 233.5 371.5" stroke="#000000" stroke-width="3" stroke-miterlimit="8" fill-rule="evenodd"/><path d="M0 0 115.633 137.163" stroke="#000000" stroke-width="3" stroke-miterlimit="8" fill-rule="evenodd" transform="matrix(1 0 0 -1 209.5 508.663)"/><path d="M0 0 316.457 137.163" stroke="#000000" stroke-width="3" stroke-miterlimit="8" fill-rule="evenodd" transform="matrix(1 0 0 -1 111.5 508.663)"/><path d="M416.301 509.295 324.5 371.5" stroke="#000000" stroke-width="3" stroke-miterlimit="8" fill-rule="evenodd"/><path d="M0 0 212.862 137.163" stroke="#000000" stroke-width="3" stroke-miterlimit="8" fill-rule="evenodd" transform="matrix(1 0 0 -1 111.5 508.663)"/><path d="M0 0 219.228 137.163" stroke="#000000" stroke-width="3" stroke-miterlimit="8" fill-rule="evenodd" transform="matrix(1 0 0 -1 209.5 508.663)"/><path d="M603.306 508.663 428.5 371.5" stroke="#000000" stroke-width="3" stroke-miterlimit="8" fill-rule="evenodd"/><path d="M505.77 508.663 428.5 371.5" stroke="#000000" stroke-width="3" stroke-miterlimit="8" fill-rule="evenodd"/><path d="M0 0 121.618 137.163" stroke="#4472C4" stroke-width="3" stroke-miterlimit="8" fill="none" fill-rule="evenodd" transform="matrix(1 0 0 -1 306.5 508.663)"/><text fill="#4472C4" font-family="DengXian,DengXian_MSFontService,sans-serif" font-weight="700" font-size="24" transform="translate(656.052 535)">BN</text><text fill="#4472C4" font-family="DengXian,DengXian_MSFontService,sans-serif" font-weight="700" font-size="24" transform="translate(656.052 365)">C</text><text fill="#4472C4" font-family="DengXian,DengXian_MSFontService,sans-serif" font-weight="700" font-size="24" transform="translate(670.885 365)">N</text></g></svg>